<svg width="512" height="512" viewBox="0 0 512 512" fill="none" xmlns="http://www.w3.org/2000/svg">
<path d="M504.5 256C504.5 281.719 480.23 303.285 472.703 326.492C464.902 350.544 471.606 382.22 457.052 402.241C442.353 422.461 410.09 425.798 389.892 440.514C369.894 455.084 356.834 484.853 332.809 492.663C309.628 500.198 281.69 484.046 256 484.046C230.31 484.046 202.372 500.198 179.191 492.663C155.166 484.853 142.106 455.084 122.108 440.514C101.91 425.798 69.6474 422.461 54.948 402.241C40.3942 382.221 47.0978 350.544 39.2968 326.492C31.7701 303.285 7.5 281.719 7.5 256C7.5 230.281 31.7701 208.715 39.2968 185.508C47.0977 161.456 40.3942 129.78 54.948 109.759C69.6474 89.5391 101.91 86.2021 122.108 71.4864C142.106 56.9164 155.166 27.147 179.191 19.3374C202.372 11.8022 230.31 27.9545 256 27.9545C281.69 27.9545 309.628 11.8022 332.809 19.3372C356.834 27.1468 369.894 56.9162 389.892 71.4863C410.09 86.202 442.353 89.539 457.052 109.759C471.606 129.78 464.902 161.456 472.703 185.508C480.23 208.715 504.5 230.281 504.5 256Z" fill="#EDE9F2"/>
<path d="M256 431.209C352.658 431.209 431.014 352.765 431.014 256C431.014 159.235 352.658 80.791 256 80.791C159.342 80.791 80.986 159.235 80.986 256C80.986 352.765 159.342 431.209 256 431.209Z" fill="#8E6BBF"/>
<path d="M233.361 333.15C230.817 333.153 228.298 332.654 225.949 331.681C223.599 330.707 221.464 329.279 219.668 327.478L179.376 287.186C175.748 283.554 173.711 278.63 173.713 273.496C173.715 268.363 175.755 263.44 179.385 259.81C183.015 256.18 187.937 254.14 193.071 254.138C198.204 254.136 203.129 256.173 206.761 259.8L233.361 286.4L335.239 184.521C337.037 182.722 339.172 181.294 341.522 180.319C343.871 179.345 346.39 178.843 348.934 178.842C351.478 178.841 353.997 179.342 356.348 180.315C358.698 181.288 360.834 182.715 362.632 184.514C364.431 186.313 365.858 188.448 366.831 190.799C367.804 193.149 368.305 195.668 368.304 198.212C368.303 200.756 367.801 203.275 366.827 205.625C365.852 207.975 364.424 210.109 362.624 211.907L247.054 327.478C245.258 329.279 243.123 330.707 240.773 331.681C238.423 332.654 235.904 333.153 233.361 333.15Z" fill="#8E6BBF"/>
<path d="M218.361 333.15C215.817 333.153 213.298 332.654 210.949 331.681C208.599 330.707 206.464 329.279 204.668 327.478L164.376 287.186C160.748 283.554 158.711 278.63 158.713 273.496C158.715 268.363 160.755 263.44 164.385 259.81C168.015 256.18 172.937 254.14 178.071 254.138C183.204 254.136 188.129 256.173 191.761 259.8L218.361 286.4L320.239 184.521C322.037 182.722 324.172 181.294 326.522 180.319C328.871 179.345 331.39 178.843 333.934 178.842C336.478 178.841 338.997 179.342 341.348 180.315C343.698 181.288 345.834 182.715 347.632 184.514C349.431 186.313 350.858 188.448 351.831 190.799C352.804 193.149 353.305 195.668 353.304 198.212C353.303 200.756 352.801 203.275 351.827 205.625C350.852 207.975 349.424 210.109 347.624 211.907L232.054 327.478C230.258 329.279 228.123 330.707 225.773 331.681C223.423 332.654 220.904 333.153 218.361 333.15Z" fill="white"/>
<path d="M256 73.291C155.362 73.291 73.4863 155.254 73.4863 256C73.4863 356.746 155.362 438.709 256 438.709C356.638 438.709 438.514 356.746 438.514 256C438.514 155.254 356.638 73.291 256 73.291ZM256 423.709C163.633 423.709 88.4863 348.475 88.4863 256C88.4863 163.525 163.633 88.291 256 88.291C348.367 88.291 423.514 163.525 423.514 256C423.514 348.475 348.367 423.709 256 423.709ZM333.932 171.35C330.402 171.34 326.906 172.031 323.646 173.381C320.385 174.732 317.425 176.716 314.936 179.218L218.361 275.793L197.064 254.497C194.57 252.002 191.608 250.024 188.349 248.674C185.09 247.324 181.596 246.629 178.068 246.629C174.54 246.629 171.047 247.324 167.788 248.674C164.528 250.024 161.567 252.002 159.072 254.497C156.578 256.992 154.599 259.953 153.249 263.213C151.899 266.472 151.204 269.965 151.204 273.493C151.204 277.021 151.899 280.514 153.249 283.774C154.599 287.033 156.578 289.995 159.072 292.489L199.365 332.782C204.403 337.82 211.236 340.65 218.361 340.65C225.486 340.65 232.319 337.82 237.357 332.782L352.928 217.21C356.685 213.453 359.243 208.667 360.28 203.455C361.317 198.244 360.785 192.843 358.751 187.934C356.718 183.025 353.275 178.829 348.857 175.877C344.439 172.926 339.245 171.35 333.932 171.35ZM342.321 206.604L226.751 322.174C224.526 324.4 221.509 325.65 218.362 325.65C215.215 325.65 212.197 324.4 209.972 322.175L169.679 281.883C167.454 279.658 166.204 276.64 166.204 273.493C166.204 271.935 166.51 270.392 167.107 268.953C167.703 267.513 168.577 266.205 169.679 265.104C170.78 264.002 172.088 263.128 173.528 262.532C174.967 261.935 176.51 261.628 178.068 261.628C181.215 261.628 184.233 262.878 186.458 265.104L213.058 291.703C214.464 293.109 216.372 293.899 218.361 293.899C220.35 293.899 222.257 293.109 223.664 291.703L325.543 189.825C326.644 188.72 327.952 187.844 329.392 187.245C330.833 186.647 332.377 186.338 333.936 186.337C335.496 186.336 337.04 186.642 338.481 187.239C339.922 187.835 341.232 188.71 342.335 189.812C343.437 190.915 344.312 192.225 344.908 193.666C345.504 195.107 345.811 196.651 345.809 198.211C345.808 199.771 345.499 201.315 344.901 202.755C344.302 204.195 343.426 205.503 342.321 206.604ZM493.411 208.811C487.823 199.93 482.545 191.542 479.837 183.194C476.959 174.318 476.234 164.093 475.467 153.267C474.272 136.417 473.038 118.995 463.118 105.349C453.092 91.5576 436.844 85 421.131 78.6582C411.148 74.6289 401.719 70.8232 394.309 65.4248C387.038 60.1274 380.599 52.3975 373.783 44.2134C362.864 31.1055 351.574 17.5508 335.127 12.2046C319.392 7.08984 302.611 11.2578 286.385 15.29C276.165 17.8291 265.597 20.4546 256 20.4546C246.403 20.4546 235.834 17.8291 225.614 15.29C209.388 11.2587 192.608 7.0898 176.873 12.2045C160.426 17.5507 149.136 31.1049 138.218 44.2128C131.401 52.397 124.962 60.127 117.691 65.4248C110.281 70.8232 100.852 74.6294 90.8682 78.6582C75.1553 85 58.9077 91.5576 48.8818 105.349C38.9619 118.995 37.7275 136.417 36.5332 153.267C35.7661 164.093 35.041 174.319 32.1626 183.194C29.4551 191.542 24.1772 199.93 18.5898 208.811C9.4502 223.335 0 238.355 0 256C0 273.645 9.4502 288.665 18.5894 303.189C24.1772 312.07 29.4551 320.458 32.1626 328.806C35.041 337.682 35.7661 347.907 36.5332 358.733C37.7275 375.583 38.9619 393.005 48.8818 406.651C58.9077 420.442 75.1558 427 90.8687 433.342C100.852 437.371 110.281 441.177 117.691 446.575C124.962 451.873 131.401 459.603 138.217 467.787C149.136 480.895 160.426 494.449 176.873 499.795C192.608 504.91 209.388 500.741 225.615 496.71C235.835 494.171 246.403 491.545 256 491.545C265.597 491.545 276.166 494.171 286.386 496.71C297.241 499.407 308.34 502.165 319.211 502.165C324.609 502.221 329.981 501.421 335.127 499.795C351.574 494.449 362.864 480.895 373.782 467.787C380.599 459.603 387.038 451.873 394.309 446.575C401.719 441.177 411.148 437.371 421.132 433.342C436.845 427 453.092 420.442 463.118 406.651C473.038 393.005 474.272 375.583 475.467 358.733C476.234 347.907 476.959 337.681 479.837 328.806C482.545 320.458 487.823 312.07 493.41 303.189C502.55 288.665 512 273.645 512 256C512 238.355 502.55 223.335 493.411 208.811ZM480.714 295.201C474.883 304.469 468.853 314.052 465.569 324.178C462.125 334.794 461.301 346.425 460.504 357.672C459.412 373.094 458.379 387.66 450.985 397.831C443.489 408.143 429.902 413.626 415.518 419.432C405.128 423.625 394.385 427.961 385.476 434.452C376.703 440.844 369.359 449.661 362.257 458.187C352.261 470.187 342.819 481.522 330.491 485.53C318.841 489.318 304.833 485.837 290.002 482.153C278.906 479.396 267.433 476.545 256 476.545C244.567 476.545 233.094 479.396 221.998 482.152C207.169 485.837 193.163 489.317 181.51 485.53C169.181 481.522 159.739 470.187 149.743 458.186C142.641 449.66 135.297 440.844 126.524 434.452C117.615 427.961 106.872 423.625 96.4829 419.432C82.0981 413.626 68.5107 408.143 61.0146 397.831C53.6211 387.66 52.5884 373.094 51.4957 357.673C50.6988 346.425 49.8746 334.795 46.4312 324.178C43.1465 314.052 37.1167 304.469 31.2857 295.201C22.9106 281.891 15 269.318 15 256C15 242.681 22.9106 230.109 31.2856 216.799C37.1167 207.531 43.147 197.948 46.4311 187.822C49.8745 177.206 50.6987 165.575 51.4956 154.328C52.5884 138.906 53.6211 124.34 61.0146 114.169C68.5107 103.857 82.0976 98.374 96.4824 92.5684C106.872 88.375 117.615 84.0391 126.524 77.5484C135.297 71.1558 142.641 62.3394 149.743 53.813C159.739 41.8125 169.181 30.4776 181.509 26.4702C193.16 22.6817 207.167 26.1631 221.998 29.8472C233.094 32.604 244.567 35.4546 256 35.4546C267.433 35.4546 278.906 32.604 290.002 29.8477C304.831 26.1631 318.839 22.6831 330.49 26.4702C342.819 30.4775 352.261 41.813 362.257 53.814C369.359 62.3398 376.703 71.1558 385.476 77.5478C394.385 84.0391 405.128 88.375 415.517 92.5684C429.902 98.374 443.489 103.857 450.985 114.169C458.379 124.34 459.412 138.906 460.504 154.327C461.301 165.575 462.125 177.205 465.569 187.822C468.854 197.948 474.883 207.531 480.714 216.799C489.089 230.109 497 242.682 497 256C497 269.319 489.089 281.891 480.714 295.201Z" fill="#272A33"/>
</svg>
