<svg width="512" height="512" viewBox="0 0 512 512" fill="none" xmlns="http://www.w3.org/2000/svg">
<path d="M504.5 256C504.5 281.719 480.23 303.285 472.703 326.492C464.902 350.544 471.606 382.22 457.052 402.241C442.353 422.461 410.09 425.798 389.892 440.514C369.894 455.084 356.834 484.853 332.809 492.663C309.628 500.198 281.69 484.046 256 484.046C230.31 484.046 202.372 500.198 179.191 492.663C155.166 484.853 142.106 455.084 122.108 440.514C101.91 425.798 69.6474 422.461 54.948 402.241C40.3942 382.221 47.0978 350.544 39.2968 326.492C31.7701 303.285 7.5 281.719 7.5 256C7.5 230.281 31.7701 208.715 39.2968 185.508C47.0977 161.456 40.3942 129.78 54.948 109.759C69.6474 89.5391 101.91 86.2021 122.108 71.4864C142.106 56.9164 155.166 27.147 179.191 19.3374C202.372 11.8022 230.31 27.9545 256 27.9545C281.69 27.9545 309.628 11.8022 332.809 19.3372C356.834 27.1468 369.894 56.9162 389.892 71.4863C410.09 86.202 442.353 89.539 457.052 109.759C471.606 129.78 464.902 161.456 472.703 185.508C480.23 208.715 504.5 230.281 504.5 256Z" fill="#EDE9F2"/>
<path d="M256.014 421.418C352.672 421.418 431.028 342.974 431.028 246.209C431.028 149.444 352.672 71 256.014 71C159.356 71 81 149.444 81 246.209C81 342.974 159.356 421.418 256.014 421.418Z" fill="#8E6BBF"/>
<path d="M256 63.4558C155.362 63.4558 73.4863 145.419 73.4863 246.165C73.4863 346.911 155.362 428.874 256 428.874C356.638 428.874 438.514 346.911 438.514 246.165C438.514 145.419 356.638 63.4558 256 63.4558ZM256 413.874C163.633 413.874 88.4863 338.64 88.4863 246.165C88.4863 153.69 163.633 78.4558 256 78.4558C348.367 78.4558 423.514 153.69 423.514 246.165C423.514 338.64 348.367 413.874 256 413.874ZM333.932 161.515C330.402 161.505 326.906 162.196 323.646 163.546C320.385 164.897 317.425 166.881 314.936 169.383L218.361 265.958L197.064 244.662C194.57 242.167 191.608 240.189 188.349 238.838C185.09 237.488 181.596 236.794 178.068 236.794C174.54 236.794 171.047 237.488 167.788 238.838C164.528 240.189 161.567 242.167 159.072 244.662C156.578 247.157 154.599 250.118 153.249 253.377C151.899 256.637 151.204 260.13 151.204 263.658C151.204 267.186 151.899 270.679 153.249 273.939C154.599 277.198 156.578 280.16 159.072 282.654L199.365 322.947C204.403 327.985 211.236 330.815 218.361 330.815C225.486 330.815 232.319 327.985 237.357 322.947L352.928 207.375C356.685 203.618 359.243 198.831 360.28 193.62C361.317 188.409 360.785 183.007 358.751 178.099C356.718 173.19 353.275 168.994 348.857 166.042C344.439 163.09 339.245 161.515 333.932 161.515ZM342.321 196.769L226.751 312.339C224.526 314.564 221.509 315.815 218.362 315.815C215.215 315.815 212.197 314.565 209.972 312.34L169.679 272.048C167.454 269.823 166.204 266.805 166.204 263.658C166.204 262.1 166.51 260.557 167.107 259.118C167.703 257.678 168.577 256.37 169.679 255.268C170.78 254.167 172.088 253.293 173.528 252.696C174.967 252.1 176.51 251.793 178.068 251.793C181.215 251.793 184.233 253.043 186.458 255.268L213.058 281.868C214.464 283.274 216.372 284.064 218.361 284.064C220.35 284.064 222.257 283.274 223.664 281.868L325.543 179.99C326.644 178.885 327.952 178.009 329.392 177.41C330.833 176.812 332.377 176.503 333.936 176.502C335.496 176.501 337.04 176.807 338.481 177.404C339.922 178 341.232 178.874 342.335 179.977C343.437 181.08 344.312 182.389 344.908 183.831C345.504 185.272 345.811 186.816 345.809 188.376C345.808 189.935 345.499 191.479 344.901 192.92C344.302 194.36 343.426 195.668 342.321 196.769ZM493.411 198.975C487.823 190.095 482.545 181.707 479.837 173.359C476.959 164.483 476.234 154.258 475.467 143.431C474.272 126.582 473.038 109.159 463.118 95.514C453.092 81.7225 436.844 75.1648 421.131 68.823C411.148 64.7938 401.719 60.988 394.309 55.5896C387.038 50.2923 380.599 42.5623 373.783 34.3782C362.864 21.2703 351.574 7.71562 335.127 2.36943C319.392 -2.74532 302.611 1.42265 286.385 5.45488C276.165 7.99394 265.597 10.6194 256 10.6194C246.403 10.6194 235.834 7.99394 225.614 5.45484C209.388 1.42359 192.608 -2.74536 176.873 2.36939C160.426 7.71558 149.136 21.2698 138.218 34.3777C131.401 42.5618 124.962 50.2918 117.691 55.5896C110.281 60.9881 100.852 64.7942 90.8682 68.823C75.1553 75.1648 58.9077 81.7225 48.8818 95.514C38.9619 109.159 37.7275 126.582 36.5332 143.432C35.7661 154.258 35.041 164.484 32.1626 173.359C29.4551 181.707 24.1772 190.095 18.5898 198.975C9.4502 213.5 0 228.52 0 246.165C0 263.81 9.4502 278.829 18.5894 293.354C24.1772 302.235 29.4551 310.623 32.1626 318.971C35.041 327.846 35.7661 338.072 36.5332 348.898C37.7275 365.747 38.9619 383.17 48.8818 396.816C58.9077 410.607 75.1558 417.165 90.8687 423.507C100.852 427.536 110.281 431.342 117.691 436.74C124.962 442.037 131.401 449.767 138.217 457.951C149.136 471.059 160.426 484.614 176.873 489.96C192.608 495.075 209.388 490.906 225.615 486.875C235.835 484.336 246.403 481.71 256 481.71C265.597 481.71 276.166 484.336 286.386 486.875C297.241 489.572 308.34 492.329 319.211 492.329C324.609 492.385 329.981 491.586 335.127 489.96C351.574 484.614 362.864 471.06 373.782 457.952C380.599 449.768 387.038 442.038 394.309 436.74C401.719 431.342 411.148 427.535 421.132 423.507C436.845 417.165 453.092 410.607 463.118 396.816C473.038 383.17 474.272 365.747 475.467 348.898C476.234 338.072 476.959 327.846 479.837 318.97C482.545 310.623 487.823 302.235 493.41 293.354C502.55 278.829 512 263.81 512 246.165C512 228.52 502.55 213.5 493.411 198.975ZM480.714 285.366C474.883 294.634 468.853 304.217 465.569 314.343C462.125 324.959 461.301 336.59 460.504 347.837C459.412 363.259 458.379 377.825 450.985 387.995C443.489 398.307 429.902 403.791 415.518 409.596C405.128 413.79 394.385 418.126 385.476 424.616C376.703 431.009 369.359 439.825 362.257 448.352C352.261 460.352 342.819 471.687 330.491 475.695C318.841 479.483 304.833 476.002 290.002 472.318C278.906 469.561 267.433 466.71 256 466.71C244.567 466.71 233.094 469.561 221.998 472.317C207.169 476.002 193.163 479.482 181.51 475.695C169.181 471.687 159.739 460.352 149.743 448.351C142.641 439.825 135.297 431.009 126.524 424.617C117.615 418.126 106.872 413.79 96.4829 409.596C82.0981 403.791 68.5107 398.307 61.0146 387.995C53.6211 377.825 52.5884 363.259 51.4957 347.838C50.6988 336.59 49.8746 324.96 46.4312 314.343C43.1465 304.217 37.1167 294.634 31.2857 285.366C22.9106 272.055 15 259.483 15 246.165C15 232.846 22.9106 220.274 31.2856 206.964C37.1167 197.696 43.147 188.113 46.4311 177.987C49.8745 167.37 50.6987 155.74 51.4956 144.492C52.5884 129.071 53.6211 114.505 61.0146 104.334C68.5107 94.0223 82.0976 88.5389 96.4824 82.7332C106.872 78.5398 117.615 74.2039 126.524 67.7132C135.297 61.3206 142.641 52.5042 149.743 43.9779C159.739 31.9774 169.181 20.6424 181.509 16.6351C193.16 12.8465 207.167 16.328 221.998 20.0121C233.094 22.7688 244.567 25.6194 256 25.6194C267.433 25.6194 278.906 22.7688 290.002 20.0125C304.831 16.3279 318.839 12.848 330.49 16.6351C342.819 20.6424 352.261 31.9778 362.257 43.9788C369.359 52.5047 376.703 61.3206 385.476 67.7127C394.385 74.2039 405.128 78.5398 415.517 82.7332C429.902 88.5389 443.489 94.0223 450.985 104.334C458.379 114.505 459.412 129.071 460.504 144.492C461.301 155.74 462.125 167.37 465.569 177.987C468.854 188.113 474.883 197.696 480.714 206.964C489.089 220.274 497 232.846 497 246.165C497 259.484 489.089 272.055 480.714 285.366Z" fill="#272A33"/>
<ellipse cx="266" cy="236.5" rx="122" ry="122.5" fill="#8E6BBF"/>
<path d="M376.75 211.125L264.25 111.125C261.969 109.121 259.036 108.016 256 108.016C252.964 108.016 250.031 109.121 247.75 111.125L135.25 211.125C133.338 212.816 131.99 215.053 131.386 217.533C130.783 220.014 130.953 222.619 131.875 225C132.781 227.349 134.376 229.37 136.451 230.797C138.525 232.225 140.982 232.993 143.5 233H156V345.5C156 348.815 157.317 351.995 159.661 354.339C162.005 356.683 165.185 358 168.5 358H343.5C346.815 358 349.995 356.683 352.339 354.339C354.683 351.995 356 348.815 356 345.5V233H368.5C371.018 232.993 373.475 232.225 375.549 230.797C377.624 229.37 379.219 227.349 380.125 225C381.047 222.619 381.217 220.014 380.614 217.533C380.01 215.053 378.662 212.816 376.75 211.125ZM268.5 333H243.5V295.5C243.5 292.185 244.817 289.005 247.161 286.661C249.505 284.317 252.685 283 256 283C259.315 283 262.495 284.317 264.839 286.661C267.183 289.005 268.5 292.185 268.5 295.5V333ZM331 333H293.5V295.5C293.5 285.554 289.549 276.016 282.517 268.983C275.484 261.951 265.946 258 256 258C246.054 258 236.516 261.951 229.483 268.983C222.451 276.016 218.5 285.554 218.5 295.5V333H181V233H331V333ZM176.375 208L256 137.25L335.625 208H176.375Z" fill="white"/>
</svg>
