<svg width="515" height="512" viewBox="0 0 515 512" fill="none" xmlns="http://www.w3.org/2000/svg">
<g filter="url(#filter0_dd_1_20)">
<path d="M22.575 152.952C39.1461 73.0607 90.1339 28.5637 169.666 15.1215C228.458 5.18673 287.272 5.06092 345.966 15.4005C427.856 29.8251 477.084 76.9171 492.767 158.017C504.883 220.693 505.074 284.037 492.577 346.655C475.812 425.993 423.509 474.966 344.271 488.359C285.478 498.293 226.664 498.419 167.97 488.08C86.0806 473.655 36.6332 424.212 20.9515 343.113C8.21716 280.024 9.44246 216.278 22.575 152.951V152.952Z" fill="black"/>
</g>
<path d="M22.575 152.952C39.1461 73.0607 90.1339 28.5637 169.666 15.1215C228.458 5.18673 287.272 5.06092 345.966 15.4005C427.856 29.8251 477.084 76.9171 492.767 158.017C504.883 220.693 505.074 284.037 492.577 346.655C475.812 425.993 423.509 474.966 344.271 488.359C285.478 498.293 226.664 498.419 167.97 488.08C86.0806 473.655 36.6332 424.212 20.9515 343.113C8.21716 280.024 9.44246 216.278 22.575 152.951V152.952Z" fill="#8E6BBF"/>
<path fill-rule="evenodd" clip-rule="evenodd" d="M384.911 217.345H405.698L405.571 330.056C405.539 357.139 383.577 379.077 356.494 379.077H168.843V358.291H353.746C370.958 358.291 384.911 344.338 384.911 327.126V217.345ZM225.562 147.416C223.026 145.241 219.796 144.046 216.456 144.046H132.012V378.895H109.402V136.391C109.402 128.131 116.097 121.436 124.356 121.436H223.46C227.578 121.436 231.56 122.906 234.691 125.582L270.087 155.832C273.027 158.345 276.768 159.726 280.636 159.726H402.598V182.337H272.674C268.825 182.337 265.102 180.969 262.168 178.48L225.562 147.417V147.416ZM222.632 252.233H240.684V291.945C240.684 292.267 240.769 292.584 240.93 292.862C241.091 293.141 241.322 293.373 241.601 293.534C241.88 293.695 242.197 293.78 242.519 293.78C242.841 293.78 243.157 293.695 243.436 293.534L289.031 267.21C290.849 266.16 290.849 263.537 289.031 262.486L219.465 222.323L228.491 206.689L302.227 249.393C304.949 250.97 307.209 253.236 308.779 255.962C310.35 258.688 311.175 261.78 311.173 264.926C311.171 268.073 310.342 271.163 308.768 273.887C307.194 276.612 304.931 278.874 302.207 280.448L243.056 314.598C241.506 315.493 239.734 315.93 237.947 315.858L236.663 315.807C228.914 315.807 222.632 309.525 222.632 301.777V252.233Z" fill="white"/>
<defs>
<filter id="filter0_dd_1_20" x="1.03381" y="0.658011" width="511.868" height="510.164" filterUnits="userSpaceOnUse" color-interpolation-filters="sRGB">
<feFlood flood-opacity="0" result="BackgroundImageFix"/>
<feColorMatrix in="SourceAlpha" type="matrix" values="0 0 0 0 0 0 0 0 0 0 0 0 0 0 0 0 0 0 127 0" result="hardAlpha"/>
<feOffset dy="5"/>
<feGaussianBlur stdDeviation="4"/>
<feColorMatrix type="matrix" values="0 0 0 0 0 0 0 0 0 0 0 0 0 0 0 0 0 0 0.078125 0"/>
<feBlend mode="normal" in2="BackgroundImageFix" result="effect1_dropShadow_1_20"/>
<feColorMatrix in="SourceAlpha" type="matrix" values="0 0 0 0 0 0 0 0 0 0 0 0 0 0 0 0 0 0 127 0" result="hardAlpha"/>
<feOffset dy="4"/>
<feGaussianBlur stdDeviation="5.5"/>
<feColorMatrix type="matrix" values="0 0 0 0 0 0 0 0 0 0 0 0 0 0 0 0 0 0 0.210824 0"/>
<feBlend mode="normal" in2="effect1_dropShadow_1_20" result="effect2_dropShadow_1_20"/>
<feBlend mode="normal" in="SourceGraphic" in2="effect2_dropShadow_1_20" result="shape"/>
</filter>
</defs>
</svg>
